<?xml version="1.0" standalone="no"?>
<!DOCTYPE svg PUBLIC "-//W3C//DTD SVG 20010904//EN"
 "http://www.w3.org/TR/2001/REC-SVG-20010904/DTD/svg10.dtd">
<svg version="1.0" xmlns="http://www.w3.org/2000/svg"
 width="512.000000pt" height="512.000000pt" viewBox="0 0 512.000000 512.000000"
 preserveAspectRatio="xMidYMid meet">
<metadata>
Created by potrace 1.11, written by Peter Selinger 2001-2013
</metadata>
<g transform="translate(0.000000,512.000000) scale(0.100000,-0.100000)"
fill="#000000" stroke="none">
<path d="M2388 4945 c-2 -1 -35 -6 -74 -9 -39 -4 -80 -8 -91 -11 -11 -2 -37
-6 -57 -9 -19 -3 -55 -10 -78 -15 -24 -6 -54 -12 -68 -14 -28 -5 -150 -40
-219 -63 -111 -37 -320 -130 -396 -177 -11 -6 -60 -36 -110 -67 -260 -158
-518 -404 -697 -665 -218 -319 -350 -650 -408 -1025 -24 -151 -28 -215 -25
-405 3 -201 5 -222 25 -350 18 -113 19 -117 45 -221 48 -188 122 -383 196
-521 17 -32 41 -76 52 -98 23 -42 159 -248 180 -271 7 -7 17 -19 22 -26 137
-176 333 -361 520 -490 334 -232 699 -368 1115 -415 129 -15 550 -6 579 12 4
1 29 6 58 9 55 5 272 58 338 81 211 74 345 135 494 225 218 130 460 336 601
510 25 30 47 57 50 60 10 9 87 115 116 159 150 226 268 490 334 748 28 108 33
130 45 206 3 17 7 43 10 57 28 152 27 533 -1 715 -8 50 -36 190 -48 240 -146
582 -506 1095 -1002 1427 -123 82 -128 85 -231 139 -178 94 -471 196 -643 225
-14 2 -34 6 -45 9 -25 5 -88 13 -185 24 -70 8 -394 13 -402 6z"/>
</g>
</svg>
